# xmcd
#
# Track frame offsets: 
#        150
#        16582
#        33362
#        49807
#
# Disc length: 946 seconds
#
# Revision: 6
# Processed by: cddbd v1.5.2PL0 Copyright (c) Steve Scherf et al.
# Submitted via: ExactAudioCopy v1.0b3
#
DISCID=2303b004
DTITLE=Cappuccino - M‰nner ('98 Remix)
DYEAR=1998
DGENRE=Rap
TTITLE0=M‰nner ('98 Remix)
TTITLE1=M‰nner (Stylus Laid Back Radio-Remix)
TTITLE2=M‰nner (Ole's Remix)
TTITLE3=Vergiﬂ Nicht (Album Version)
EXTD=
EXTT0=
EXTT1=
EXTT2=
EXTT3=
PLAYORDER=
